<svg width="46" height="46" viewBox="0 0 46 46" fill="none" xmlns="http://www.w3.org/2000/svg">
<path d="M0.25 22.75C0.25 35.3139 10.4361 45.5 23 45.5C35.5639 45.5 45.75 35.3139 45.75 22.75C45.75 10.1861 35.5639 0 23 0C10.4361 0 0.25 10.1861 0.25 22.75ZM23.5086 12.7575C23.6718 12.9194 23.8015 13.1118 23.8903 13.3238C23.9791 13.5358 24.0253 13.7632 24.0262 13.993C24.0271 14.2229 23.9828 14.4507 23.8956 14.6634C23.8085 14.8761 23.6803 15.0695 23.5184 15.2327L17.7959 21H32.4062C32.8704 21 33.3155 21.1844 33.6437 21.5126C33.9719 21.8408 34.1562 22.2859 34.1562 22.75C34.1562 23.2141 33.9719 23.6593 33.6437 23.9874C33.3155 24.3156 32.8704 24.5 32.4062 24.5H17.7959L23.5184 30.2673C23.6803 30.4307 23.8084 30.6243 23.8955 30.8371C23.9825 31.0499 24.0268 31.2778 24.0258 31.5077C24.0248 31.7377 23.9785 31.9652 23.8896 32.1772C23.8006 32.3893 23.6708 32.5817 23.5075 32.7436C23.3442 32.9055 23.1506 33.0336 22.9378 33.1206C22.7249 33.2077 22.4971 33.252 22.2671 33.251C22.0372 33.25 21.8097 33.2037 21.5976 33.1147C21.3856 33.0258 21.1931 32.896 21.0312 32.7327L12.348 23.9827C12.0227 23.6549 11.8402 23.2118 11.8402 22.75C11.8402 22.2882 12.0227 21.8451 12.348 21.5173L21.0312 12.7673C21.1931 12.6038 21.3857 12.4738 21.5979 12.3848C21.8101 12.2958 22.0378 12.2495 22.2679 12.2486C22.498 12.2477 22.726 12.2922 22.9389 12.3795C23.1518 12.4668 23.3454 12.5953 23.5086 12.7575Z" fill="#04ADBF"/>
</svg>
