<svg width="84" height="84" viewBox="0 0 84 84" fill="none" xmlns="http://www.w3.org/2000/svg">
<path d="M38.4932 56L55.9932 42L38.4932 28V38.5H6.99316V45.5H38.4932V56Z" fill="#F2F2F2"/>
<path d="M45.4965 10.4965C41.3578 10.485 37.258 11.2949 33.4346 12.8792C29.6112 14.4635 26.1401 16.7907 23.2225 19.726L28.1715 24.675C32.7985 20.048 38.9515 17.4965 45.4965 17.4965C52.0415 17.4965 58.1945 20.048 62.8215 24.675C67.4485 29.302 70 35.455 70 42C70 48.545 67.4485 54.698 62.8215 59.325C58.1945 63.952 52.0415 66.5035 45.4965 66.5035C38.9515 66.5035 32.7985 63.952 28.1715 59.325L23.2225 64.274C29.169 70.224 37.079 73.5035 45.4965 73.5035C53.914 73.5035 61.824 70.224 67.7705 64.274C73.7205 58.3275 77 50.4175 77 42C77 33.5825 73.7205 25.6725 67.7705 19.726C64.8529 16.7907 61.3818 14.4635 57.5584 12.8792C53.7349 11.2949 49.6351 10.485 45.4965 10.4965Z" fill="#F2F2F2"/>
</svg>
