<svg width="180" height="170" viewBox="0 0 180 170" fill="none" xmlns="http://www.w3.org/2000/svg">
<rect x="5" width="170" height="170" rx="85" fill="#04ADBF"/>
<g clip-path="url(#clip0)">
<path d="M96.7499 55.3787V17.5C96.7499 16.3065 96.2757 15.1619 95.4318 14.318C94.5879 13.4741 93.4433 13 92.2499 13H87.7499C86.5564 13 85.4118 13.4741 84.5679 14.318C83.724 15.1619 83.2498 16.3065 83.2498 17.5V55.3787C85.2868 54.1495 87.6207 53.4998 89.9999 53.4998C92.379 53.4998 94.7129 54.1495 96.7499 55.3787ZM54.9955 138.004C52.468 135.47 51.0487 132.038 51.0487 128.459C51.0487 124.88 52.468 121.447 54.9955 118.913L57.4086 116.5H53.9998C50.4194 116.5 46.9856 115.078 44.4539 112.546C41.9222 110.014 40.4998 106.58 40.4998 103C40.4998 99.4196 41.9222 95.9858 44.4539 93.4541C46.9856 90.9223 50.4194 89.5 53.9998 89.5H57.4086L54.9955 87.0897C52.6116 84.7268 51.1935 81.5605 51.0177 78.2086C50.842 74.8567 51.9212 71.5595 54.0449 68.9603C56.1686 66.361 59.1844 64.6461 62.504 64.15C65.8237 63.6539 69.2091 64.4123 71.9998 66.2772V58.4922C71.9998 48.2631 63.1742 40 52.3123 40C39.9373 40 35.9998 48.0156 29.7786 57.7553C16.917 77.7994 7.23966 99.7158 1.09108 122.724C0.360783 125.441 -0.00616365 128.242 -0.000171938 131.055C-0.000171938 148.281 17.578 160.729 35.2264 155.982L51.9608 151.518C57.8192 149.963 63.0061 146.53 66.7264 141.745C64.6142 142.133 62.4391 141.994 60.3931 141.342C58.3471 140.69 56.4933 139.543 54.9955 138.004ZM118.64 131.64C119.483 130.796 119.957 129.652 119.957 128.459C119.957 127.266 119.483 126.122 118.64 125.278L116.226 122.865C110.556 117.195 114.573 107.5 122.591 107.5H126C127.193 107.5 128.338 107.026 129.182 106.182C130.026 105.338 130.5 104.193 130.5 103C130.5 101.807 130.026 100.662 129.182 99.818C128.338 98.9741 127.193 98.5 126 98.5H122.591C114.573 98.5 110.556 88.8053 116.226 83.1381L118.64 80.725C119.484 79.881 119.958 78.7363 119.958 77.5427C119.958 76.349 119.484 75.2043 118.64 74.3603C117.796 73.5163 116.651 73.0421 115.457 73.0421C114.264 73.0421 113.119 73.5163 112.275 74.3603L109.865 76.7734C104.195 82.4434 94.4999 78.4272 94.4999 70.4087V67C94.4999 65.8065 94.0257 64.6619 93.1818 63.818C92.3379 62.9741 91.1933 62.5 89.9999 62.5C88.8064 62.5 87.6618 62.9741 86.8179 63.818C85.974 64.6619 85.4999 65.8065 85.4999 67V70.4087C85.4999 78.4272 75.8052 82.4434 70.1352 76.7734L67.7249 74.3603C66.8808 73.5163 65.7361 73.0421 64.5425 73.0421C63.3489 73.0421 62.2042 73.5163 61.3602 74.3603C60.5162 75.2043 60.042 76.349 60.042 77.5427C60.042 78.7363 60.5162 79.881 61.3602 80.725L63.7733 83.1381C69.4433 88.8053 65.427 98.5 57.4086 98.5H53.9998C52.8064 98.5 51.6618 98.9741 50.8179 99.818C49.974 100.662 49.4998 101.807 49.4998 103C49.4998 104.193 49.974 105.338 50.8179 106.182C51.6618 107.026 52.8064 107.5 53.9998 107.5H57.4086C65.427 107.5 69.4433 117.195 63.7733 122.865L61.3602 125.278C60.9324 125.693 60.5915 126.19 60.3573 126.739C60.1231 127.287 60.0004 127.877 59.9961 128.473C59.9919 129.07 60.1063 129.661 60.3327 130.213C60.559 130.765 60.8929 131.266 61.3147 131.688C61.7366 132.11 62.2381 132.443 62.7901 132.669C63.342 132.895 63.9334 133.01 64.5299 133.005C65.1264 133.001 65.716 132.878 66.2645 132.643C66.813 132.409 67.3094 132.068 67.7249 131.64L70.1352 129.229C75.8052 123.559 85.4999 127.576 85.4999 135.591V139C85.4999 140.193 85.974 141.338 86.8179 142.182C87.6618 143.026 88.8064 143.5 89.9999 143.5C91.1933 143.5 92.3379 143.026 93.1818 142.182C94.0257 141.338 94.4999 140.193 94.4999 139V135.591C94.4999 127.576 104.195 123.559 109.865 129.229L112.275 131.64C112.693 132.058 113.189 132.389 113.735 132.615C114.281 132.842 114.866 132.958 115.457 132.958C116.048 132.958 116.633 132.842 117.18 132.615C117.726 132.389 118.222 132.058 118.64 131.64ZM80.9998 98.5C80.1098 98.5 79.2398 98.2361 78.4998 97.7416C77.7598 97.2472 77.183 96.5443 76.8424 95.7221C76.5018 94.8998 76.4127 93.995 76.5863 93.1221C76.7599 92.2492 77.1885 91.4473 77.8179 90.818C78.4472 90.1887 79.249 89.7601 80.1219 89.5865C80.9949 89.4128 81.8997 89.5019 82.7219 89.8425C83.5442 90.1831 84.247 90.7599 84.7415 91.4999C85.2359 92.24 85.4999 93.11 85.4999 94C85.4999 95.1935 85.0257 96.3381 84.1818 97.182C83.3379 98.0259 82.1933 98.5 80.9998 98.5ZM98.9999 116.5C98.1098 116.5 97.2398 116.236 96.4998 115.742C95.7598 115.247 95.183 114.544 94.8424 113.722C94.5018 112.9 94.4127 111.995 94.5863 111.122C94.76 110.249 95.1885 109.447 95.8179 108.818C96.4472 108.189 97.249 107.76 98.1219 107.586C98.9949 107.413 99.8997 107.502 100.722 107.843C101.544 108.183 102.247 108.76 102.741 109.5C103.236 110.24 103.5 111.11 103.5 112C103.5 113.193 103.026 114.338 102.182 115.182C101.338 116.026 100.193 116.5 98.9999 116.5ZM178.909 122.724C172.76 99.7158 163.083 77.7994 150.221 57.7553C144 48.0156 140.062 40 127.687 40C116.825 40 108 48.2631 108 58.4922V66.2884C110.791 64.4236 114.176 63.6652 117.496 64.1612C120.815 64.6573 123.831 66.3722 125.955 68.9715C128.078 71.5708 129.158 74.868 128.982 78.2199C128.806 81.5718 127.388 84.738 125.004 87.1009L122.591 89.5H126C129.58 89.5 133.014 90.9223 135.546 93.4541C138.078 95.9858 139.5 99.4196 139.5 103C139.5 106.58 138.078 110.014 135.546 112.546C133.014 115.078 129.58 116.5 126 116.5H122.591L125.004 118.913C127.069 120.915 128.436 123.528 128.903 126.366C129.37 129.204 128.912 132.117 127.598 134.675C126.283 137.234 124.182 139.302 121.602 140.575C119.023 141.847 116.103 142.258 113.273 141.745C116.994 146.53 122.18 149.963 128.039 151.518L144.773 155.982C162.422 160.729 180 148.281 180 131.055C180.006 128.242 179.639 125.441 178.909 122.724Z" fill="#F2F2F2"/>
</g>
<defs>
<clipPath id="clip0">
<rect y="13" width="180" height="144" fill="white"/>
</clipPath>
</defs>
</svg>
